<svg xmlns="http://www.w3.org/2000/svg" viewBox="0 0 229.42 197.75"><defs><style>.cls-1{fill:#334365;}.cls-2{fill:#fff;}</style></defs><title>Ресурс 1</title><g id="Слой_2" data-name="Слой 2"><g id="Слой_1-2" data-name="Слой 1"><polygon class="cls-1" points="229.42 0 0 48.77 0 147.67 12.75 144.96 12.75 175.25 29.74 141.35 229.42 98.9 229.42 0"/><path class="cls-2" d="M16.64,127.64c-.65.14-.93-.09-.93-.77v-15.7a2,2,0,0,1,.28-1L40.94,74.88v-.29L17.66,79.54c-.65.14-.93-.09-.93-.77V62.67a1,1,0,0,1,.93-1.17L63,51.87c.65-.14.93.09.93.77v15.7a2,2,0,0,1-.28,1l-25,35.27v.29L63,99.75c.65-.14.93.09.93.77v16.09a1,1,0,0,1-.93,1.17Z"/><path class="cls-2" d="M69.5,83.44q0-11.34,1.95-18.15c3.34-11.47,12.61-19.06,24.39-21.57s21.05,1.15,24.39,11.2q1.95,6.13,1.95,17.32T120.23,90.4c-3.34,11.47-12.61,19.06-24.39,21.57s-21.05-1.15-24.39-11.2Q69.5,94.79,69.5,83.44Zm33-7c0-6.3-.28-10.22-.74-11.76-.83-2.63-2.87-3.56-5.94-2.91a7.29,7.29,0,0,0-5.94,5.43c-.46,1.75-.74,5.78-.74,12.08s.28,10.22.74,11.77c.83,2.63,2.88,3.56,5.94,2.91a7.29,7.29,0,0,0,5.94-5.43C102.24,86.76,102.51,82.73,102.51,76.43Z"/><path class="cls-2" d="M161.87,96.77c-.65.14-.93-.09-.93-.77V72.83q0-.58-.56-.46l-.28.06c-3.15.67-5.38,3.08-6.58,7.31l-2.23,7.94c-2.6,9.37-7.7,13.56-16.6,15.45l-6.12,1.3c-.65.14-.93-.09-.93-.77V88.14a1,1,0,0,1,.93-1.07l1.21-.26c2.13-.45,3.52-1.91,4.17-4.47l2.23-8q1.53-5.56,5-7.46v-.39c-1.67-.52-3.06-2.06-4.08-4.85l-1.95-5.11c-.83-2.34-2.41-3.27-4.54-2.81l-1.76.37c-.65.14-.93-.09-.93-.68V38.46a1,1,0,0,1,.93-1.17L135,36q11.83-2.51,16.42,8.43l3.25,7.65A4.37,4.37,0,0,0,160.1,55l.28-.06a.64.64,0,0,0,.56-.7V32a1,1,0,0,1,.93-1.17l17.62-3.75c.65-.14.93.09.93.77v22.2q0,.58.56.46l.28-.06c2.6-.55,4.45-2.3,5.47-5.23l3.25-9q4.59-12.9,16.42-15.41l6.12-1.3c.65-.14.93.09.93.77V35.21a1,1,0,0,1-.93,1.07l-1.76.37c-2.13.45-3.71,2-4.54,4.75l-1.95,5.94c-1,3.22-2.41,5.36-4.08,6.59v.39q3.48.42,5,5.33l2.23,7.09c.65,2.29,2,3.15,4.17,2.7l1.21-.26c.65-.14.93.09.93.68V85.36a1,1,0,0,1-.93,1.17l-6.12,1.3c-8.9,1.89-14-.12-16.6-8.39l-2.23-7c-1.21-3.72-3.43-5.18-6.58-4.51L181,68a.64.64,0,0,0-.56.7V91.86a1,1,0,0,1-.93,1.17Z"/><path class="cls-2" d="M41.49,191.38c-.41.09-.59-.06-.59-.49V150.37a.66.66,0,0,1,.59-.74l26-5.52c.41-.09.59.06.59.49v10.13a.66.66,0,0,1-.59.74l-13.86,2.95a.41.41,0,0,0-.35.44v29.41a.71.71,0,0,1-.65.75Z"/><path class="cls-2" d="M65.23,186.34c-.41.09-.53-.07-.41-.53l13.86-43.47a.93.93,0,0,1,.76-.78l12-2.55a.57.57,0,0,1,.76.45l13.51,37.65c.12.4,0,.61-.41.7l-11.93,2.53a.57.57,0,0,1-.76-.45l-1.47-5.15-11.75,2.5L77.92,183a.93.93,0,0,1-.76.78Zm17-20.19,6.17-1.31-2.94-10.49-.18,0Z"/><path class="cls-2" d="M107.65,177.69c-.41.09-.59-.06-.59-.49v-9.82a.63.63,0,0,1,.59-.68l1-.21c2.64-.56,4.93-3.38,4.93-10.2V134.86a.61.61,0,0,1,.53-.66l29.78-6.33c.3-.06.47.08.47.45V168.9c0,.43-.12.64-.41.7L132.56,172c-.35.08-.53-.07-.53-.5V142.12q0-.37-.35-.29L126,143a.41.41,0,0,0-.35.44v10.13c0,7.37-1.12,12.82-3.29,16.36a14.36,14.36,0,0,1-9.69,6.67Z"/><path class="cls-2" d="M151.3,168c-.41.09-.59-.06-.59-.49V127a.65.65,0,0,1,.59-.74l11.16-2.37c.41-.09.59.06.59.49v13.94q0,.37.35.29l.76-.16a4.42,4.42,0,0,0,3.76-3.26l2.06-5.72c2.06-5.84,5.23-8.66,10.34-9.75l3.94-.84c.41-.09.59.06.59.49v9.46a.63.63,0,0,1-.59.68l-1.41.3c-1.17.25-2.06,1.24-2.58,2.94l-1.17,3.57c-.76,2.31-1.65,3.73-2.7,4.38V141c1.41.13,2.47,1.26,3.17,3.32l1.47,4.54c.47,1.44,1.35,2,2.64,1.71l.82-.17c.41-.09.59.06.59.43v9.82a.65.65,0,0,1-.59.74l-4.35.92c-5.35,1.14-8.46-.29-10.1-5.4l-1.41-4.43c-1.41-3.32-2.7-3.11-4.88-2.59l-.41.09a.37.37,0,0,0-.29.37v14.61a.66.66,0,0,1-.59.74Z"/><path class="cls-2" d="M188.9,160.05c-.41.09-.53-.07-.41-.53l13.86-43.47a.93.93,0,0,1,.76-.78l12-2.55a.57.57,0,0,1,.76.45l13.51,37.65c.12.4,0,.61-.41.7L217,154.07a.56.56,0,0,1-.76-.45l-1.47-5.15L203.06,151l-1.47,5.78a.93.93,0,0,1-.76.78Zm17-20.19,6.17-1.31-2.94-10.49-.18,0Z"/><polygon class="cls-2" points="11.56 197.75 22.64 195.39 22.64 175.65 11.56 197.75"/></g></g></svg>